<mxfile host="app.diagrams.net" modified="2023-05-31T13:11:12.943Z" agent="Mozilla/5.0 (Windows NT 10.0; Win64; x64; rv:109.0) Gecko/20100101 Firefox/113.0" etag="8r9WYa0ul6G5lUNNOqTN" version="21.3.5" type="github">
  <diagram name="Page-1" id="8lPKrEU7bHMMSzuzVbtW">
    <mxGraphModel dx="2284" dy="764" grid="1" gridSize="10" guides="1" tooltips="1" connect="1" arrows="1" fold="1" page="1" pageScale="1" pageWidth="850" pageHeight="1100" math="0" shadow="0">
      <root>
        <mxCell id="0" />
        <mxCell id="1" parent="0" />
        <mxCell id="XjNMTQCaul1xZnKqR4yc-8" value="Frontend" style="verticalAlign=top;align=left;spacingTop=8;spacingLeft=2;spacingRight=12;shape=cube;size=10;direction=south;fontStyle=4;html=1;whiteSpace=wrap;" parent="1" vertex="1">
          <mxGeometry x="110" y="40" width="630" height="460" as="geometry" />
        </mxCell>
        <mxCell id="XjNMTQCaul1xZnKqR4yc-9" value="Backend" style="verticalAlign=top;align=left;spacingTop=8;spacingLeft=2;spacingRight=12;shape=cube;size=10;direction=south;fontStyle=4;html=1;whiteSpace=wrap;" parent="1" vertex="1">
          <mxGeometry x="-130" y="510" width="1100" height="670" as="geometry" />
        </mxCell>
        <mxCell id="XjNMTQCaul1xZnKqR4yc-4" value="Slider" style="swimlane;fontStyle=1;align=center;verticalAlign=top;childLayout=stackLayout;horizontal=1;startSize=27;horizontalStack=0;resizeParent=1;resizeParentMax=0;resizeLast=0;collapsible=1;marginBottom=0;whiteSpace=wrap;html=1;" parent="1" vertex="1">
          <mxGeometry x="330" y="70" width="160" height="201" as="geometry">
            <mxRectangle x="-160" y="460" width="70" height="30" as="alternateBounds" />
          </mxGeometry>
        </mxCell>
        <mxCell id="XjNMTQCaul1xZnKqR4yc-5" value="&lt;div&gt;+ sliderContainer: slider&lt;/div&gt;&lt;div&gt;+ lowerInput: float&lt;/div&gt;&lt;div&gt;+ higherInput: float&lt;/div&gt;&lt;div&gt;+ minValue: float&lt;/div&gt;&lt;div&gt;+ maxValue: float&lt;/div&gt;&lt;div&gt;+ step: int&lt;/div&gt;&lt;div&gt;+ lowerValue: float&lt;/div&gt;&lt;div&gt;+ higherValue: float&lt;br&gt;&lt;/div&gt;&lt;div&gt;&lt;br&gt;&lt;/div&gt;&lt;div&gt;&lt;br&gt; &lt;/div&gt;" style="text;strokeColor=none;fillColor=none;align=left;verticalAlign=top;spacingLeft=4;spacingRight=4;overflow=hidden;rotatable=0;points=[[0,0.5],[1,0.5]];portConstraint=eastwest;whiteSpace=wrap;html=1;" parent="XjNMTQCaul1xZnKqR4yc-4" vertex="1">
          <mxGeometry y="27" width="160" height="134" as="geometry" />
        </mxCell>
        <mxCell id="XjNMTQCaul1xZnKqR4yc-6" value="" style="line;strokeWidth=1;fillColor=none;align=left;verticalAlign=middle;spacingTop=-1;spacingLeft=3;spacingRight=3;rotatable=0;labelPosition=right;points=[];portConstraint=eastwest;strokeColor=inherit;" parent="XjNMTQCaul1xZnKqR4yc-4" vertex="1">
          <mxGeometry y="161" width="160" height="8" as="geometry" />
        </mxCell>
        <mxCell id="XjNMTQCaul1xZnKqR4yc-7" value="&lt;div&gt;+ createSlider(): slider&lt;/div&gt;" style="text;strokeColor=none;fillColor=none;align=left;verticalAlign=top;spacingLeft=4;spacingRight=4;overflow=hidden;rotatable=0;points=[[0,0.5],[1,0.5]];portConstraint=eastwest;whiteSpace=wrap;html=1;" parent="XjNMTQCaul1xZnKqR4yc-4" vertex="1">
          <mxGeometry y="169" width="160" height="32" as="geometry" />
        </mxCell>
        <mxCell id="XjNMTQCaul1xZnKqR4yc-10" value="BrightnessSlider" style="swimlane;fontStyle=1;align=center;verticalAlign=top;childLayout=stackLayout;horizontal=1;startSize=26;horizontalStack=0;resizeParent=1;resizeParentMax=0;resizeLast=0;collapsible=1;marginBottom=0;whiteSpace=wrap;html=1;" parent="1" vertex="1">
          <mxGeometry x="150" y="340" width="160" height="60" as="geometry" />
        </mxCell>
        <mxCell id="XjNMTQCaul1xZnKqR4yc-11" value="+ BrightnessSlider()" style="text;strokeColor=none;fillColor=none;align=left;verticalAlign=top;spacingLeft=4;spacingRight=4;overflow=hidden;rotatable=0;points=[[0,0.5],[1,0.5]];portConstraint=eastwest;whiteSpace=wrap;html=1;" parent="XjNMTQCaul1xZnKqR4yc-10" vertex="1">
          <mxGeometry y="26" width="160" height="26" as="geometry" />
        </mxCell>
        <mxCell id="XjNMTQCaul1xZnKqR4yc-12" value="" style="line;strokeWidth=1;fillColor=none;align=left;verticalAlign=middle;spacingTop=-1;spacingLeft=3;spacingRight=3;rotatable=0;labelPosition=right;points=[];portConstraint=eastwest;strokeColor=inherit;" parent="XjNMTQCaul1xZnKqR4yc-10" vertex="1">
          <mxGeometry y="52" width="160" height="8" as="geometry" />
        </mxCell>
        <mxCell id="XjNMTQCaul1xZnKqR4yc-14" value="FrequencySlider" style="swimlane;fontStyle=1;align=center;verticalAlign=top;childLayout=stackLayout;horizontal=1;startSize=26;horizontalStack=0;resizeParent=1;resizeParentMax=0;resizeLast=0;collapsible=1;marginBottom=0;whiteSpace=wrap;html=1;" parent="1" vertex="1">
          <mxGeometry x="330" y="340" width="160" height="60" as="geometry" />
        </mxCell>
        <mxCell id="XjNMTQCaul1xZnKqR4yc-15" value="+ FrequencySlider()" style="text;strokeColor=none;fillColor=none;align=left;verticalAlign=top;spacingLeft=4;spacingRight=4;overflow=hidden;rotatable=0;points=[[0,0.5],[1,0.5]];portConstraint=eastwest;whiteSpace=wrap;html=1;" parent="XjNMTQCaul1xZnKqR4yc-14" vertex="1">
          <mxGeometry y="26" width="160" height="26" as="geometry" />
        </mxCell>
        <mxCell id="XjNMTQCaul1xZnKqR4yc-16" value="" style="line;strokeWidth=1;fillColor=none;align=left;verticalAlign=middle;spacingTop=-1;spacingLeft=3;spacingRight=3;rotatable=0;labelPosition=right;points=[];portConstraint=eastwest;strokeColor=inherit;" parent="XjNMTQCaul1xZnKqR4yc-14" vertex="1">
          <mxGeometry y="52" width="160" height="8" as="geometry" />
        </mxCell>
        <mxCell id="XjNMTQCaul1xZnKqR4yc-18" value="SleepSllider" style="swimlane;fontStyle=1;align=center;verticalAlign=top;childLayout=stackLayout;horizontal=1;startSize=26;horizontalStack=0;resizeParent=1;resizeParentMax=0;resizeLast=0;collapsible=1;marginBottom=0;whiteSpace=wrap;html=1;" parent="1" vertex="1">
          <mxGeometry x="510" y="340" width="160" height="60" as="geometry" />
        </mxCell>
        <mxCell id="XjNMTQCaul1xZnKqR4yc-19" value="+ SleepSlider()" style="text;strokeColor=none;fillColor=none;align=left;verticalAlign=top;spacingLeft=4;spacingRight=4;overflow=hidden;rotatable=0;points=[[0,0.5],[1,0.5]];portConstraint=eastwest;whiteSpace=wrap;html=1;" parent="XjNMTQCaul1xZnKqR4yc-18" vertex="1">
          <mxGeometry y="26" width="160" height="26" as="geometry" />
        </mxCell>
        <mxCell id="XjNMTQCaul1xZnKqR4yc-20" value="" style="line;strokeWidth=1;fillColor=none;align=left;verticalAlign=middle;spacingTop=-1;spacingLeft=3;spacingRight=3;rotatable=0;labelPosition=right;points=[];portConstraint=eastwest;strokeColor=inherit;" parent="XjNMTQCaul1xZnKqR4yc-18" vertex="1">
          <mxGeometry y="52" width="160" height="8" as="geometry" />
        </mxCell>
        <mxCell id="XjNMTQCaul1xZnKqR4yc-26" value="Extends" style="endArrow=block;endSize=16;endFill=0;html=1;rounded=0;exitX=0.5;exitY=0;exitDx=0;exitDy=0;entryX=0.313;entryY=1.031;entryDx=0;entryDy=0;entryPerimeter=0;" parent="1" source="XjNMTQCaul1xZnKqR4yc-10" target="XjNMTQCaul1xZnKqR4yc-7" edge="1">
          <mxGeometry x="0.0091" width="160" relative="1" as="geometry">
            <mxPoint x="210" y="310" as="sourcePoint" />
            <mxPoint x="370" y="310" as="targetPoint" />
            <Array as="points">
              <mxPoint x="230" y="310" />
              <mxPoint x="380" y="310" />
            </Array>
            <mxPoint as="offset" />
          </mxGeometry>
        </mxCell>
        <mxCell id="XjNMTQCaul1xZnKqR4yc-27" value="Extends" style="endArrow=block;endSize=16;endFill=0;html=1;rounded=0;exitX=0.5;exitY=0;exitDx=0;exitDy=0;entryX=0.506;entryY=1;entryDx=0;entryDy=0;entryPerimeter=0;" parent="1" source="XjNMTQCaul1xZnKqR4yc-14" target="XjNMTQCaul1xZnKqR4yc-7" edge="1">
          <mxGeometry width="160" relative="1" as="geometry">
            <mxPoint x="420" y="328" as="sourcePoint" />
            <mxPoint x="570" y="260" as="targetPoint" />
          </mxGeometry>
        </mxCell>
        <mxCell id="XjNMTQCaul1xZnKqR4yc-28" value="Extends" style="endArrow=block;endSize=16;endFill=0;html=1;rounded=0;exitX=0.5;exitY=0;exitDx=0;exitDy=0;entryX=0.663;entryY=1.063;entryDx=0;entryDy=0;entryPerimeter=0;" parent="1" source="XjNMTQCaul1xZnKqR4yc-18" target="XjNMTQCaul1xZnKqR4yc-7" edge="1">
          <mxGeometry width="160" relative="1" as="geometry">
            <mxPoint x="530" y="271" as="sourcePoint" />
            <mxPoint x="680" y="203" as="targetPoint" />
            <Array as="points">
              <mxPoint x="590" y="310" />
              <mxPoint x="520" y="310" />
              <mxPoint x="436" y="310" />
            </Array>
          </mxGeometry>
        </mxCell>
        <mxCell id="xdBbtKjgj54eUSS4mFcp-9" value="LEDController" style="swimlane;fontStyle=1;align=center;verticalAlign=top;childLayout=stackLayout;horizontal=1;startSize=26;horizontalStack=0;resizeParent=1;resizeParentMax=0;resizeLast=0;collapsible=1;marginBottom=0;whiteSpace=wrap;html=1;" vertex="1" parent="1">
          <mxGeometry x="-90" y="560" width="320" height="220" as="geometry" />
        </mxCell>
        <mxCell id="xdBbtKjgj54eUSS4mFcp-10" value="&lt;div&gt;+ red_pin: int&lt;/div&gt;&lt;div&gt;+ green_pin: int&lt;/div&gt;&lt;div&gt;+ blue_pin: int&lt;/div&gt;&lt;div&gt;+ fireplace(red_pin, green_pin, blue_pin): fireplace&lt;/div&gt;&lt;div&gt;+ rainbow(red_pin, green_pin, blue_pin): rainbow&lt;/div&gt;&lt;div&gt;+ fireplace_thread: thread&lt;/div&gt;&lt;div&gt;+ rainbow_thread: thread&lt;/div&gt;" style="text;strokeColor=none;fillColor=none;align=left;verticalAlign=top;spacingLeft=4;spacingRight=4;overflow=hidden;rotatable=0;points=[[0,0.5],[1,0.5]];portConstraint=eastwest;whiteSpace=wrap;html=1;" vertex="1" parent="xdBbtKjgj54eUSS4mFcp-9">
          <mxGeometry y="26" width="320" height="124" as="geometry" />
        </mxCell>
        <mxCell id="xdBbtKjgj54eUSS4mFcp-11" value="" style="line;strokeWidth=1;fillColor=none;align=left;verticalAlign=middle;spacingTop=-1;spacingLeft=3;spacingRight=3;rotatable=0;labelPosition=right;points=[];portConstraint=eastwest;strokeColor=inherit;" vertex="1" parent="xdBbtKjgj54eUSS4mFcp-9">
          <mxGeometry y="150" width="320" height="8" as="geometry" />
        </mxCell>
        <mxCell id="xdBbtKjgj54eUSS4mFcp-12" value="&lt;div&gt;+ start_fireplace(*args): void&lt;/div&gt;&lt;div&gt;+ start_rainbow(): void&lt;/div&gt;&lt;div&gt;+ get_form_field_values(form_fields): array&lt;br&gt;&lt;/div&gt;" style="text;strokeColor=none;fillColor=none;align=left;verticalAlign=top;spacingLeft=4;spacingRight=4;overflow=hidden;rotatable=0;points=[[0,0.5],[1,0.5]];portConstraint=eastwest;whiteSpace=wrap;html=1;" vertex="1" parent="xdBbtKjgj54eUSS4mFcp-9">
          <mxGeometry y="158" width="320" height="62" as="geometry" />
        </mxCell>
        <mxCell id="xdBbtKjgj54eUSS4mFcp-13" value="Fireplace" style="swimlane;fontStyle=1;align=center;verticalAlign=top;childLayout=stackLayout;horizontal=1;startSize=26;horizontalStack=0;resizeParent=1;resizeParentMax=0;resizeLast=0;collapsible=1;marginBottom=0;whiteSpace=wrap;html=1;" vertex="1" parent="1">
          <mxGeometry x="770" y="780" width="160" height="86" as="geometry" />
        </mxCell>
        <mxCell id="xdBbtKjgj54eUSS4mFcp-14" value="+ field: type" style="text;strokeColor=none;fillColor=none;align=left;verticalAlign=top;spacingLeft=4;spacingRight=4;overflow=hidden;rotatable=0;points=[[0,0.5],[1,0.5]];portConstraint=eastwest;whiteSpace=wrap;html=1;" vertex="1" parent="xdBbtKjgj54eUSS4mFcp-13">
          <mxGeometry y="26" width="160" height="26" as="geometry" />
        </mxCell>
        <mxCell id="xdBbtKjgj54eUSS4mFcp-15" value="" style="line;strokeWidth=1;fillColor=none;align=left;verticalAlign=middle;spacingTop=-1;spacingLeft=3;spacingRight=3;rotatable=0;labelPosition=right;points=[];portConstraint=eastwest;strokeColor=inherit;" vertex="1" parent="xdBbtKjgj54eUSS4mFcp-13">
          <mxGeometry y="52" width="160" height="8" as="geometry" />
        </mxCell>
        <mxCell id="xdBbtKjgj54eUSS4mFcp-16" value="+ method(type): type" style="text;strokeColor=none;fillColor=none;align=left;verticalAlign=top;spacingLeft=4;spacingRight=4;overflow=hidden;rotatable=0;points=[[0,0.5],[1,0.5]];portConstraint=eastwest;whiteSpace=wrap;html=1;" vertex="1" parent="xdBbtKjgj54eUSS4mFcp-13">
          <mxGeometry y="60" width="160" height="26" as="geometry" />
        </mxCell>
        <mxCell id="xdBbtKjgj54eUSS4mFcp-21" value="HSV" style="swimlane;fontStyle=1;align=center;verticalAlign=top;childLayout=stackLayout;horizontal=1;startSize=26;horizontalStack=0;resizeParent=1;resizeParentMax=0;resizeLast=0;collapsible=1;marginBottom=0;whiteSpace=wrap;html=1;" vertex="1" parent="1">
          <mxGeometry x="260" y="560" width="270" height="80" as="geometry" />
        </mxCell>
        <mxCell id="xdBbtKjgj54eUSS4mFcp-23" value="" style="line;strokeWidth=1;fillColor=none;align=left;verticalAlign=middle;spacingTop=-1;spacingLeft=3;spacingRight=3;rotatable=0;labelPosition=right;points=[];portConstraint=eastwest;strokeColor=inherit;" vertex="1" parent="xdBbtKjgj54eUSS4mFcp-21">
          <mxGeometry y="26" width="270" height="8" as="geometry" />
        </mxCell>
        <mxCell id="xdBbtKjgj54eUSS4mFcp-24" value="&lt;div&gt;+ validate_hsv(hue, saturation, value): void&lt;/div&gt;&lt;div&gt;+ convert(hue, saturation, value): (int, int, int)&lt;br&gt;&lt;/div&gt;" style="text;strokeColor=none;fillColor=none;align=left;verticalAlign=top;spacingLeft=4;spacingRight=4;overflow=hidden;rotatable=0;points=[[0,0.5],[1,0.5]];portConstraint=eastwest;whiteSpace=wrap;html=1;" vertex="1" parent="xdBbtKjgj54eUSS4mFcp-21">
          <mxGeometry y="34" width="270" height="46" as="geometry" />
        </mxCell>
        <mxCell id="xdBbtKjgj54eUSS4mFcp-25" value="LED" style="swimlane;fontStyle=1;align=center;verticalAlign=top;childLayout=stackLayout;horizontal=1;startSize=26;horizontalStack=0;resizeParent=1;resizeParentMax=0;resizeLast=0;collapsible=1;marginBottom=0;whiteSpace=wrap;html=1;" vertex="1" parent="1">
          <mxGeometry x="-90" y="890" width="320" height="190" as="geometry" />
        </mxCell>
        <mxCell id="xdBbtKjgj54eUSS4mFcp-26" value="&lt;div&gt;+ pin: int&lt;/div&gt;&lt;div&gt;+ current_duty_cycle: int&lt;/div&gt;&lt;div&gt;+ current_frequency: int&lt;br&gt;&lt;/div&gt;" style="text;strokeColor=none;fillColor=none;align=left;verticalAlign=top;spacingLeft=4;spacingRight=4;overflow=hidden;rotatable=0;points=[[0,0.5],[1,0.5]];portConstraint=eastwest;whiteSpace=wrap;html=1;" vertex="1" parent="xdBbtKjgj54eUSS4mFcp-25">
          <mxGeometry y="26" width="320" height="54" as="geometry" />
        </mxCell>
        <mxCell id="xdBbtKjgj54eUSS4mFcp-27" value="" style="line;strokeWidth=1;fillColor=none;align=left;verticalAlign=middle;spacingTop=-1;spacingLeft=3;spacingRight=3;rotatable=0;labelPosition=right;points=[];portConstraint=eastwest;strokeColor=inherit;" vertex="1" parent="xdBbtKjgj54eUSS4mFcp-25">
          <mxGeometry y="80" width="320" height="8" as="geometry" />
        </mxCell>
        <mxCell id="xdBbtKjgj54eUSS4mFcp-28" value="&lt;div&gt;+ set_duty_cycle(dutycycle): int&lt;/div&gt;&lt;div&gt;+ set_frequency(frequency): int&lt;/div&gt;&lt;div&gt;+ get_dutycycle(): int&lt;/div&gt;&lt;div&gt;+ get_frequency(): int&lt;/div&gt;&lt;div&gt;+ set_sleep(sleeptime): float&lt;/div&gt;&lt;div&gt;+ turn_off(): void&lt;br&gt;&lt;/div&gt;" style="text;strokeColor=none;fillColor=none;align=left;verticalAlign=top;spacingLeft=4;spacingRight=4;overflow=hidden;rotatable=0;points=[[0,0.5],[1,0.5]];portConstraint=eastwest;whiteSpace=wrap;html=1;" vertex="1" parent="xdBbtKjgj54eUSS4mFcp-25">
          <mxGeometry y="88" width="320" height="102" as="geometry" />
        </mxCell>
        <mxCell id="xdBbtKjgj54eUSS4mFcp-29" value="ThreadManager" style="swimlane;fontStyle=1;align=center;verticalAlign=top;childLayout=stackLayout;horizontal=1;startSize=26;horizontalStack=0;resizeParent=1;resizeParentMax=0;resizeLast=0;collapsible=1;marginBottom=0;whiteSpace=wrap;html=1;" vertex="1" parent="1">
          <mxGeometry x="770" y="570" width="160" height="86" as="geometry" />
        </mxCell>
        <mxCell id="xdBbtKjgj54eUSS4mFcp-30" value="+ field: type" style="text;strokeColor=none;fillColor=none;align=left;verticalAlign=top;spacingLeft=4;spacingRight=4;overflow=hidden;rotatable=0;points=[[0,0.5],[1,0.5]];portConstraint=eastwest;whiteSpace=wrap;html=1;" vertex="1" parent="xdBbtKjgj54eUSS4mFcp-29">
          <mxGeometry y="26" width="160" height="26" as="geometry" />
        </mxCell>
        <mxCell id="xdBbtKjgj54eUSS4mFcp-31" value="" style="line;strokeWidth=1;fillColor=none;align=left;verticalAlign=middle;spacingTop=-1;spacingLeft=3;spacingRight=3;rotatable=0;labelPosition=right;points=[];portConstraint=eastwest;strokeColor=inherit;" vertex="1" parent="xdBbtKjgj54eUSS4mFcp-29">
          <mxGeometry y="52" width="160" height="8" as="geometry" />
        </mxCell>
        <mxCell id="xdBbtKjgj54eUSS4mFcp-32" value="+ method(type): type" style="text;strokeColor=none;fillColor=none;align=left;verticalAlign=top;spacingLeft=4;spacingRight=4;overflow=hidden;rotatable=0;points=[[0,0.5],[1,0.5]];portConstraint=eastwest;whiteSpace=wrap;html=1;" vertex="1" parent="xdBbtKjgj54eUSS4mFcp-29">
          <mxGeometry y="60" width="160" height="26" as="geometry" />
        </mxCell>
        <mxCell id="xdBbtKjgj54eUSS4mFcp-33" value="Rainbow" style="swimlane;fontStyle=1;align=center;verticalAlign=top;childLayout=stackLayout;horizontal=1;startSize=26;horizontalStack=0;resizeParent=1;resizeParentMax=0;resizeLast=0;collapsible=1;marginBottom=0;whiteSpace=wrap;html=1;" vertex="1" parent="1">
          <mxGeometry x="770" y="690" width="160" height="86" as="geometry" />
        </mxCell>
        <mxCell id="xdBbtKjgj54eUSS4mFcp-34" value="+ field: type" style="text;strokeColor=none;fillColor=none;align=left;verticalAlign=top;spacingLeft=4;spacingRight=4;overflow=hidden;rotatable=0;points=[[0,0.5],[1,0.5]];portConstraint=eastwest;whiteSpace=wrap;html=1;" vertex="1" parent="xdBbtKjgj54eUSS4mFcp-33">
          <mxGeometry y="26" width="160" height="26" as="geometry" />
        </mxCell>
        <mxCell id="xdBbtKjgj54eUSS4mFcp-35" value="" style="line;strokeWidth=1;fillColor=none;align=left;verticalAlign=middle;spacingTop=-1;spacingLeft=3;spacingRight=3;rotatable=0;labelPosition=right;points=[];portConstraint=eastwest;strokeColor=inherit;" vertex="1" parent="xdBbtKjgj54eUSS4mFcp-33">
          <mxGeometry y="52" width="160" height="8" as="geometry" />
        </mxCell>
        <mxCell id="xdBbtKjgj54eUSS4mFcp-36" value="+ method(type): type" style="text;strokeColor=none;fillColor=none;align=left;verticalAlign=top;spacingLeft=4;spacingRight=4;overflow=hidden;rotatable=0;points=[[0,0.5],[1,0.5]];portConstraint=eastwest;whiteSpace=wrap;html=1;" vertex="1" parent="xdBbtKjgj54eUSS4mFcp-33">
          <mxGeometry y="60" width="160" height="26" as="geometry" />
        </mxCell>
      </root>
    </mxGraphModel>
  </diagram>
</mxfile>
